<svg id="Слой_1" data-name="Слой 1" xmlns="http://www.w3.org/2000/svg" viewBox="0 0 163.7 163.7"><defs><style>.cls-1{fill:#fbba06;}.cls-2{fill:#1d1d1b;}</style></defs><rect class="cls-1" x="70.73" y="70.73" width="22.24" height="22.24"/><polygon class="cls-1" points="137.46 26.25 159.7 26.25 159.7 4 137.46 4 115.21 4 92.97 4 70.73 4 48.49 4 26.24 4 4 4 4 26.25 4 48.49 4 70.73 4 92.97 26.24 92.97 26.24 115.21 48.49 115.21 48.49 92.97 48.49 70.73 70.73 70.73 70.73 48.49 48.49 48.49 48.49 26.25 70.73 26.25 92.97 26.25 115.21 26.25 115.21 48.49 92.97 48.49 92.97 70.73 115.21 70.73 115.21 92.97 115.21 115.21 137.46 115.21 137.46 137.46 115.21 137.46 92.97 137.46 70.73 137.46 48.49 137.46 26.24 137.46 4 137.46 4 159.7 26.24 159.7 48.49 159.7 70.73 159.7 92.97 159.7 115.21 159.7 137.46 159.7 159.7 159.7 159.7 137.46 159.7 115.21 159.7 92.97 159.7 70.73 137.46 70.73 137.46 48.49 137.46 26.25"/><path class="cls-2" d="M312.14,328.25H281.89V298h30.25Zm-22.25-8h14.25V306H289.89Z" transform="translate(-215.17 -231.28)"/><path class="cls-2" d="M334.38,350.49H259.65V275.76h74.73Zm-66.73-8h58.73V283.76H267.65Z" transform="translate(-215.17 -231.28)"/><path class="cls-2" d="M356.62,372.73H237.41V253.52H356.62Zm-111.21-8H348.62V261.52H245.41Z" transform="translate(-215.17 -231.28)"/><path class="cls-2" d="M378.86,395H215.17V231.28H378.86Zm-155.69-8H370.86V239.28H223.17Z" transform="translate(-215.17 -231.28)"/></svg>